#!OML:ASF H:\Male1\Project 1\Capture day 1\Session 1\Male1.ASF
:FULLY-SPECIFIED
:DEGREES
431
root 7.31492 16.1322 0.411576 67.9844 -83.6245 -69.1636
lowerback 22.3967 4.02137 -0.609843
upperback 6.37015 4.72189 1.14904
thorax -5.6421 2.10295 0.344795
lowerneck -10.8941 5.36034 11.9233
upperneck -0.935316 5.73822 -6.33538
head 1.98077 2.64822 -3.52951
rclavicle -5.22804e-014 2.50469e-014
rhumerus 66.7595 5.85406 -54.5685
rradius 40.6284
rwrist 0.42059
rhand -2.94844 19.823
rfingers 7.12502
rthumb 22.7634 -8.85402
lclavicle -5.22804e-014 2.50469e-014
lhumerus 61.9015 18.4429 36.0137
lradius 41.5351
lwrist 33.2144
lhand -18.5194 15.8692
lfingers 7.12502
lthumb 7.76902 45.7064
rfemur -52.2299 -20.6858 23.3546
rtibia 104.005
rfoot -11.3159 3.95194
rtoes -41.3572
lfemur 8.60196 -2.42617 -18.7142
ltibia 1.74931e-014
lfoot -8.00998 20.7579
ltoes -0.00215587
432
root 7.34157 16.0968 0.363001 65.9509 -83.5034 -67.0938
lowerback 21.9093 4.11196 -0.381954
upperback 6.22505 4.90014 0.917353
thorax -5.51301 2.20119 -0.0563211
lowerneck -11.0631 5.00308 11.5811
upperneck -1.4534 5.23985 -5.64615
head 1.77584 2.40017 -3.29919
rclavicle 3.77691e-015 1.11319e-014
rhumerus 66.1896 5.57452 -54.6307
rradius 39.7937
rwrist 1.29864
rhand -5.26709 20.7466
rfingers 7.12502
rthumb 20.5368 -8.18712
lclavicle 3.77691e-015 1.11319e-014
lhumerus 60.1512 16.9617 35.5988
lradius 43.0711
lwrist 33.6692
lhand -19.4759 15.1309
lfingers 7.12502
lthumb 6.84575 45.0002
rfemur -48.8063 -20.111 22.4759
rtibia 101.382
rfoot -11.4618 2.78107
rtoes -41.1394
lfemur 8.39259 -2.68989 -18.5784
ltibia 1.59028e-015
lfoot -7.82828 21.0255
ltoes -0.616155
433
root 7.36534 16.0591 0.313151 63.7404 -83.4199 -64.8079
lowerback 21.3837 4.22781 -0.0924713
upperback 6.03919 5.12218 0.623081
thorax -5.39249 2.32221 -0.5651
lowerneck -11.0738 4.57487 11.2956
upperneck -1.95965 4.67541 -4.67811
head 1.75044 2.13653 -3.32666
rclavicle -1.53064e-014 9.93923e-015
rhumerus 65.471 5.26634 -54.7131
rradius 39.0195
rwrist 2.06607
rhand -7.61621 21.5396
rfingers 7.12502
rthumb 18.2781 -7.62165
lclavicle -1.53064e-014 9.93923e-015
lhumerus 58.4207 15.2413 35.4554
lradius 44.5714
lwrist 33.7081
lhand -20.5522 14.502
lfingers 7.12502
lthumb 5.80668 44.4024
rfemur -45.5094 -19.3611 21.7182
rtibia 98.3525
rfoot -11.7266 1.50922
rtoes -40.9107
lfemur 4.78151 -3.05354 -18.5315
ltibia 6.42621
lfoot -10.9648 20.8836
ltoes -1.09936
434
root 7.3871 16.0209 0.262146 61.4047 -83.3671 -62.3435
lowerback 20.8667 4.34139 0.182123
upperback 5.78939 5.34075 0.331241
thorax -5.34072 2.44213 -1.06062
lowerneck -11.2472 4.14921 10.9868
upperneck -1.95406 4.10586 -3.99995
head 1.70053 1.86507 -3.06418
rclavicle 3.45885e-014 5.1684e-015
rhumerus 64.6785 5.09194 -54.7037
rradius 38.3926
rwrist 2.54484
rhand -9.83886 22.1082
rfingers 7.12502
rthumb 16.1388 -7.23988
lclavicle 3.45885e-014 5.1684e-015
lhumerus 56.5294 13.4073 35.6726
lradius 46.0201
lwrist 33.2904
lhand -21.6896 14.0571
lfingers 7.12502
lthumb 4.7085 43.9848
rfemur -42.4068 -18.4987 21.0993
rtibia 94.9717
rfoot -12.1303 0.0693903
rtoes -40.6507
lfemur 2.54784 -3.38004 -18.4804
ltibia 10.1811
lfoot -12.8306 20.8486
ltoes -1.5359
435
root 7.40777 15.9839 0.209646 59.0278 -83.3287 -59.7877
lowerback 20.3248 4.41398 0.350034
upperback 5.535 5.48905 0.133191
thorax -5.29612 2.52754 -1.37418
lowerneck -11.4605 3.77853 10.5257
upperneck -1.74884 3.63165 -3.37724
head 1.73621 1.64809 -2.78837
rclavicle -1.98785e-015 2.74323e-014
rhumerus 63.9948 5.20151 -54.4866
rradius 38.0179
rwrist 2.6368
rhand -11.7722 22.3787
rfingers 7.12502
rthumb 14.2765 -7.11056
lclavicle -1.98785e-015 2.74323e-014
lhumerus 54.3279 11.6838 36.3661
lradius 47.3676
lwrist 32.4046
lhand -22.921 13.5865
lfingers 7.12502
lthumb 3.51944 43.5372
rfemur -39.5235 -17.5833 20.6335
rtibia 91.2891
rfoot -12.6469 -1.61397
rtoes -40.3393
lfemur 0.874775 -3.52931 -18.4283
ltibia 12.8008
lfoot -14.1315 20.6634
ltoes -1.96338
436
root 7.42652 15.949 0.155736 56.0697 -83.3481 -56.6325
lowerback 19.7962 4.44487 0.350753
upperback 5.28153 5.55284 0.00942571
thorax -5.27979 2.57132 -1.49426
lowerneck -11.6697 3.47216 9.95626
upperneck -1.40799 3.26411 -2.84368
head 1.82977 1.48854 -2.51992
rclavicle 3.75703e-014 -1.70955e-014
rhumerus 63.373 5.59881 -54.056
rradius 37.9815
rwrist 2.34383
rhand -13.33 22.2752
rfingers 7.12502
rthumb 12.7751 -7.31398
lclavicle 3.75703e-014 -1.70955e-014
lhumerus 51.782 10.0838 37.5872
lradius 48.5909
lwrist 31.0883
lhand -24.2757 13.055
lfingers 7.12502
lthumb 2.21114 43.0233
rfemur -36.8066 -16.7146 20.1908
rtibia 87.356
rfoot -13.2606 -3.51346
rtoes -39.902
lfemur -0.52178 -3.79975 -18.4711
ltibia 14.8902
lfoot -15.2108 20.5353
ltoes -2.34926
437
root 7.44425 15.9173 0.1003 52.9706 -83.354 -53.3307
lowerback 19.2407 4.41567 0.258266
upperback 5.09301 5.52178 -0.0190815
thorax -5.19855 2.56854 -1.43322
lowerneck -11.9227 3.26658 9.30957
upperneck -1.03021 3.04203 -2.43357
head 1.95917 1.39992 -2.27351
rclavicle 0 3.97569e-016
rhumerus 62.8956 6.24783 -53.4018
rradius 38.3405
rwrist 1.71986
rhand -14.5203 21.7905
rfingers 7.12502
rthumb 11.6274 -7.86686
lclavicle 0 3.97569e-016
lhumerus 48.8467 8.73601 39.2833
lradius 49.7069
lwrist 29.4461
lhand -25.8635 12.4052
lfingers 7.12502
lthumb 0.677609 42.3839
rfemur -34.2213 -15.8785 19.8477
rtibia 83.1873
rfoot -13.9023 -5.61329
rtoes -39.1631
lfemur -1.75042 -4.15528 -18.5112
ltibia 16.657
lfoot -16.1641 20.4294
ltoes -2.54151
438
root 7.46048 15.888 0.0434607 49.6654 -83.3241 -49.847
lowerback 18.6653 4.31962 0.13046
upperback 4.98465 5.39567 0.0122113
thorax -5.03036 2.51865 -1.26273
lowerneck -12.1732 3.16129 8.69221
upperneck -0.697958 2.95684 -2.17077
head 2.08859 1.37385 -2.07626
rclavicle 1.80894e-014 1.27222e-014
rhumerus 62.5091 7.07008 -52.6183
rradius 39.1106
rwrist 0.901117
rhand -15.4351 21.0279
rfingers 7.12502
rthumb 10.7451 -8.67728
lclavicle 1.80894e-014 1.27222e-014
lhumerus 45.5127 7.62253 41.2835
lradius 50.7438
lwrist 27.6485
lhand -27.7137 11.8182
lfingers 7.12502
lthumb -1.10941 41.7951
rfemur -31.6954 -15.0843 19.5724
rtibia 78.8039
rfoot -14.6265 -7.7207
rtoes -38.232
lfemur -2.8427 -4.55902 -18.543
ltibia 18.2149
lfoot -17.0189 20.326
ltoes -2.57737
439
root 7.47483 15.8599 -0.0148152 46.1458 -83.2359 -46.1941
lowerback 18.0954 4.21849 0.133156
upperback 4.93002 5.27839 -0.030635
thorax -4.78606 2.47147 -1.24423
lowerneck -12.3154 3.07476 8.3822
upperneck -0.497578 2.86978 -2.04894
head 2.16629 1.33915 -1.98393
rclavicle -2.88238e-014 7.95139e-015
rhumerus 61.9059 7.75875 -51.9888
rradius 40.2542
rwrist 0.121029
rhand -16.2186 20.1918
rfingers 7.12502
rthumb 9.98925 -9.55116
lclavicle -2.88238e-014 7.95139e-015
lhumerus 42.0313 6.45247 43.3538
lradius 51.7029
lwrist 25.9103
lhand -29.7926 11.4763
lfingers 7.12502
lthumb -3.11717 41.4332
rfemur -29.1694 -14.3072 19.3415
rtibia 74.2232
rfoot -15.4664 -9.62941
rtoes -37.1183
lfemur -3.82882 -4.97909 -18.5627
ltibia 19.6624
lfoot -17.8203 20.2042
ltoes -2.44209
440
root 7.48791 15.8314 -0.0748965 42.5473 -83.0634 -42.5069
lowerback 17.555 4.09838 0.245734
upperback 4.91036 5.14923 -0.120558
thorax -4.50505 2.41711 -1.33569
lowerneck -12.3628 3.01718 8.31004
upperneck -0.399176 2.7995 -2.02504
head 2.20198 1.30757 -1.96722
rclavicle 2.68359e-014 1.59028e-014
rhumerus 61.1035 8.35426 -51.6394
rradius 41.6591
rwrist -0.447064
rhand -17.0128 19.5318
rfingers 7.12502
rthumb 9.22298 -10.2464
lclavicle 2.68359e-014 1.59028e-014
lhumerus 38.3576 5.22859 45.3834
lradius 52.5389
lwrist 24.3508
lhand -31.923 11.5436
lfingers 7.12502
lthumb -5.17434 41.4604
rfemur -26.6269 -13.4899 19.1631
rtibia 69.4768
rfoot -16.4179 -11.1924
rtoes -35.9369
lfemur -4.7447 -5.38928 -18.5507
ltibia 21.0519
lfoot -18.5977 20.0396
ltoes -2.10383
441
root 7.50035 15.8007 -0.137517 38.9242 -82.7904 -38.8382
lowerback 17.0212 3.95522 0.430529
upperback 4.94445 4.99649 -0.224203
thorax -4.16357 2.35062 -1.47643
lowerneck -12.3842 2.98831 8.37544
upperneck -0.367857 2.75115 -2.05446
head 2.2162 1.28358 -1.99214
rclavicle 4.37326e-015 -1.15295e-014
rhumerus 60.1612 8.86946 -51.5255
rradius 43.2557
rwrist -0.799035
rhand -17.9231 19.1894
rfingers 7.12502
rthumb 8.34458 -10.6258
lclavicle 4.37326e-015 -1.15295e-014
lhumerus 34.5626 3.98995 47.3177
lradius 53.1643
lwrist 23.0525
lhand -33.7524 12.0069
lfingers 7.12502
lthumb -6.94058 41.8732
rfemur -24.0624 -12.5653 19.036
rtibia 64.6192
rfoot -17.438 -12.3542
rtoes -34.766
lfemur -5.61912 -5.77828 -18.502
ltibia 22.4218
lfoot -19.35 19.8176
ltoes -1.69198
